<?xml version="1.0" encoding="UTF-8"?>
<svg xmlns="http://www.w3.org/2000/svg" xmlns:xlink="http://www.w3.org/1999/xlink" width="99px" height="99px" viewBox="0 0 99 99" version="1.1">
<g id="surface1">
<path style=" stroke:none;fill-rule:nonzero;fill:rgb(0%,0%,0%);fill-opacity:1;" d="M 89.152344 79.488281 C 86.25 78.300781 85.007812 76.722656 85.128906 74.367188 C 85.25 71.621094 83.691406 69.605469 82.953125 68.8125 C 83.398438 67.101562 84.707031 61.191406 82.953125 56.058594 C 81.070312 50.5625 75.316406 42.167969 69.382812 33.917969 C 66.953125 30.53125 66.835938 26.847656 66.703125 22.585938 C 66.578125 18.515625 66.433594 13.90625 64.167969 8.78125 C 61.699219 3.199219 56.75 0 50.589844 0 C 46.921875 0 43.160156 1.144531 40.261719 3.144531 C 34.332031 7.234375 35.117188 16.160156 35.632812 22.0625 C 35.707031 22.871094 35.773438 23.636719 35.8125 24.289062 C 36.15625 30.070312 35.84375 33.121094 35.433594 34.046875 C 35.164062 34.652344 33.855469 36.375 32.472656 38.199219 C 31.039062 40.085938 29.414062 42.222656 28.085938 44.214844 C 26.496094 46.613281 25.214844 50.277344 23.972656 53.824219 C 23.066406 56.417969 22.210938 58.867188 21.375 60.328125 C 19.796875 63.144531 20.1875 65.773438 20.515625 66.984375 C 19.917969 67.402344 19.054688 68.21875 18.324219 69.761719 C 17.441406 71.644531 15.652344 72.65625 11.929688 73.375 C 10.21875 73.722656 9.039062 74.441406 8.421875 75.511719 C 7.523438 77.066406 8.011719 79.019531 8.460938 80.355469 C 9.117188 82.320312 8.707031 83.5625 7.960938 85.816406 C 7.789062 86.339844 7.59375 86.925781 7.394531 87.578125 C 7.085938 88.605469 7.195312 89.535156 7.730469 90.351562 C 9.136719 92.5 13.238281 93.257812 17.460938 93.757812 C 19.980469 94.054688 22.742188 95.0625 25.410156 96.039062 C 28.027344 96.996094 30.730469 97.984375 33.1875 98.285156 C 33.5625 98.332031 33.929688 98.355469 34.289062 98.355469 C 38 98.355469 39.675781 95.890625 40.207031 94.878906 C 41.542969 94.609375 46.140625 93.738281 50.878906 93.621094 C 55.609375 93.484375 60.1875 94.417969 61.484375 94.710938 C 61.890625 95.488281 62.964844 97.273438 64.679688 98.191406 C 65.621094 98.703125 66.929688 99 68.273438 99 C 69.707031 99 72.433594 98.660156 74.59375 96.390625 C 76.746094 94.109375 82.125 91.195312 86.050781 89.070312 C 86.925781 88.597656 87.746094 88.152344 88.464844 87.75 C 90.671875 86.527344 91.875 84.78125 91.769531 82.957031 C 91.679688 81.441406 90.675781 80.113281 89.152344 79.488281 Z M 40.3125 79.050781 C 40.035156 77.113281 37.546875 75.195312 34.664062 72.976562 C 32.308594 71.15625 29.636719 69.097656 28.902344 67.355469 C 27.382812 63.757812 28.578125 57.433594 30.671875 54.175781 C 31.703125 52.546875 32.546875 50.074219 33.363281 47.679688 C 34.242188 45.097656 35.15625 42.429688 36.171875 41.257812 C 37.785156 39.433594 39.277344 35.882812 39.542969 33.085938 C 41.054688 34.527344 43.398438 36.359375 45.5625 36.359375 C 45.894531 36.359375 46.21875 36.316406 46.527344 36.226562 C 48.011719 35.800781 50.1875 34.539062 52.296875 33.324219 C 54.113281 32.273438 56.355469 30.980469 57.195312 30.863281 C 58.640625 32.9375 67.039062 51.523438 67.898438 57.492188 C 68.578125 62.214844 67.859375 66.121094 67.5 67.648438 C 67.210938 67.609375 66.863281 67.578125 66.5 67.578125 C 64.160156 67.578125 63.542969 68.855469 63.378906 69.617188 C 62.964844 71.597656 62.921875 77.933594 62.917969 79.355469 C 62.070312 80.429688 57.792969 85.492188 51.652344 86.402344 C 49.152344 86.765625 46.8125 86.949219 44.710938 86.949219 C 42.910156 86.949219 41.761719 86.808594 41.285156 86.738281 L 38.199219 83.207031 C 39.414062 82.605469 40.632812 81.335938 40.3125 79.050781 Z M 44.226562 20.824219 C 44.128906 20.863281 44.035156 20.910156 43.941406 20.957031 C 43.933594 20.746094 43.910156 20.535156 43.878906 20.320312 C 43.542969 18.382812 42.253906 16.976562 40.820312 16.976562 C 40.714844 16.976562 40.609375 16.984375 40.492188 17 C 39.636719 17.144531 38.96875 17.785156 38.601562 18.691406 C 38.921875 16.699219 40.054688 15.222656 41.394531 15.222656 C 42.96875 15.222656 44.296875 17.34375 44.296875 19.855469 C 44.296875 20.171875 44.273438 20.484375 44.226562 20.824219 Z M 56.460938 22.316406 C 56.605469 21.859375 56.679688 21.363281 56.679688 20.847656 C 56.679688 18.570312 55.238281 16.785156 53.394531 16.785156 C 51.589844 16.785156 50.125 18.609375 50.125 20.847656 C 50.125 21 50.132812 21.152344 50.148438 21.304688 C 50.050781 21.269531 49.957031 21.230469 49.867188 21.199219 C 49.660156 20.570312 49.554688 19.914062 49.554688 19.246094 C 49.554688 16.523438 51.292969 14.308594 53.433594 14.308594 C 55.574219 14.308594 57.3125 16.523438 57.3125 19.246094 C 57.3125 20.378906 57 21.457031 56.460938 22.316406 Z M 54.882812 27.617188 C 54.851562 27.753906 54.785156 27.816406 54.0625 28.191406 C 53.695312 28.382812 53.238281 28.621094 52.667969 28.96875 L 52.289062 29.199219 C 50.757812 30.125 47.171875 32.300781 46.195312 32.429688 C 45.535156 32.515625 45.125 32.261719 44.207031 31.636719 C 44 31.496094 43.777344 31.34375 43.542969 31.195312 C 41.886719 30.105469 40.820312 28.90625 40.699219 28.441406 C 41.238281 28.023438 42.578125 26.976562 43.265625 26.359375 C 44.65625 25.0625 46.058594 24.191406 46.75 24.191406 C 46.789062 24.191406 46.820312 24.195312 46.855469 24.203125 C 47.671875 24.347656 49.679688 25.148438 51.148438 25.734375 C 51.828125 26.003906 52.414062 26.238281 52.824219 26.386719 C 54.125 26.832031 54.800781 27.402344 54.882812 27.617188 Z M 66.550781 88.109375 C 67.28125 84.804688 68.128906 80.308594 67.992188 77.660156 C 67.957031 77.058594 67.90625 76.402344 67.855469 75.769531 C 67.757812 74.585938 67.613281 72.824219 67.761719 72.300781 C 67.792969 72.289062 67.824219 72.277344 67.859375 72.265625 C 67.867188 73.78125 68.195312 76.804688 70.613281 77.855469 C 71.332031 78.171875 72.15625 78.332031 73.058594 78.332031 C 75.480469 78.332031 78.167969 77.144531 79.265625 76.042969 C 79.914062 75.394531 80.460938 74.601562 80.839844 73.972656 C 80.925781 74.21875 80.976562 74.539062 80.949219 74.949219 C 80.804688 77.183594 81.890625 80.148438 83.957031 81.242188 L 84.257812 81.398438 C 84.996094 81.785156 86.949219 82.8125 86.980469 83.300781 C 86.980469 83.300781 86.964844 83.355469 86.855469 83.457031 C 86.367188 83.90625 84.644531 84.785156 82.976562 85.636719 C 80.019531 87.148438 76.667969 88.859375 75.160156 90.441406 C 73.042969 92.671875 70.644531 94.171875 69.195312 94.171875 C 69.023438 94.171875 68.863281 94.148438 68.722656 94.105469 C 67.148438 93.613281 65.855469 91.347656 66.550781 88.109375 Z M 12.957031 79.679688 C 12.796875 78.929688 12.667969 78.335938 12.804688 77.761719 C 12.90625 77.339844 15.003906 76.882812 15.898438 76.6875 C 17.160156 76.414062 18.464844 76.132812 19.316406 75.613281 C 20.46875 74.914062 21.09375 73.628906 21.644531 72.492188 C 22.042969 71.671875 22.453125 70.820312 22.945312 70.542969 C 22.972656 70.527344 23.011719 70.507812 23.09375 70.507812 C 24.011719 70.507812 25.9375 72.4375 27.046875 74.164062 C 27.328125 74.597656 27.847656 75.46875 28.453125 76.480469 C 30.257812 79.5 32.726562 83.632812 34.015625 85.015625 C 35.179688 86.261719 37.058594 88.65625 36.597656 90.710938 C 36.257812 92.304688 34.453125 93.601562 34.027344 93.886719 C 33.875 93.921875 33.683594 93.941406 33.457031 93.941406 C 30.988281 93.941406 26.101562 91.886719 23.476562 90.78125 L 23.089844 90.617188 C 21.621094 90.003906 19.226562 89.617188 16.914062 89.242188 C 15.070312 88.945312 12.550781 88.535156 12.132812 88.167969 C 11.792969 87.785156 12.1875 86.550781 12.53125 85.460938 C 12.78125 84.675781 13.039062 83.867188 13.179688 83.019531 C 13.382812 81.667969 13.144531 80.566406 12.957031 79.679688 Z M 12.957031 79.679688 "/>
</g>
</svg>
